<?xml version="1.0" encoding="UTF-8" standalone="no"?>
<!DOCTYPE svg PUBLIC "-//W3C//DTD SVG 1.1//EN"
 "http://www.w3.org/Graphics/SVG/1.1/DTD/svg11.dtd">
<!-- Generated by graphviz version 2.40.1 (20161225.0304)
 -->
<!-- Title: cluster Pages: 1 -->
<svg width="215pt" height="300pt"
 viewBox="0.00 0.00 215.03 299.65" xmlns="http://www.w3.org/2000/svg" xmlns:xlink="http://www.w3.org/1999/xlink">
<g id="graph0" class="graph" transform="scale(1 1) rotate(0) translate(4 295.6468)">
<title>cluster</title>
<polygon fill="#ffffff" stroke="transparent" points="-4,4 -4,-295.6468 211.028,-295.6468 211.028,4 -4,4"/>
<!-- 1 -->
<g id="node1" class="node">
<title>1</title>
<ellipse fill="none" stroke="#000000" cx="110.4472" cy="-243.5635" rx="45.9239" ry="48.1667"/>
<text text-anchor="middle" x="110.4472" y="-262.3635" font-family="Times,serif" font-size="14.00" fill="#000000">#1</text>
<text text-anchor="middle" x="110.4472" y="-247.3635" font-family="Times,serif" font-size="14.00" fill="#000000"> c = 10</text>
<text text-anchor="middle" x="110.4472" y="-232.3635" font-family="Times,serif" font-size="14.00" fill="#000000"> a0 = &#45;1</text>
<text text-anchor="middle" x="110.4472" y="-217.3635" font-family="Times,serif" font-size="14.00" fill="#000000"> if c &gt; 0:</text>
</g>
<!-- 2 -->
<g id="node2" class="node">
<title>2</title>
<ellipse fill="none" stroke="#000000" cx="54.4472" cy="-117.6102" rx="54.3945" ry="26.7407"/>
<text text-anchor="middle" x="54.4472" y="-121.4102" font-family="Times,serif" font-size="14.00" fill="#000000">#2</text>
<text text-anchor="middle" x="54.4472" y="-106.4102" font-family="Times,serif" font-size="14.00" fill="#000000"> a2 = a1+1</text>
</g>
<!-- 1&#45;&gt;2 -->
<g id="edge2" class="edge">
<title>1&#45;&gt;2</title>
<path fill="none" stroke="#000000" d="M91.0183,-199.8646C84.2289,-184.5941 76.6954,-167.65 70.2389,-153.1282"/>
<polygon fill="#000000" stroke="#000000" points="73.431,-151.6926 66.1701,-143.977 67.0347,-154.5365 73.431,-151.6926"/>
<text text-anchor="middle" x="95.9472" y="-166.2802" font-family="Times,serif" font-size="14.00" fill="#000000">c &gt; 0</text>
</g>
<!-- 4 -->
<g id="node4" class="node">
<title>4</title>
<ellipse fill="none" stroke="#000000" cx="166.4472" cy="-117.6102" rx="39.6962" ry="26.7407"/>
<text text-anchor="middle" x="166.4472" y="-121.4102" font-family="Times,serif" font-size="14.00" fill="#000000">#4</text>
<text text-anchor="middle" x="166.4472" y="-106.4102" font-family="Times,serif" font-size="14.00" fill="#000000"> a3 = 0</text>
</g>
<!-- 1&#45;&gt;4 -->
<g id="edge4" class="edge">
<title>1&#45;&gt;4</title>
<path fill="none" stroke="#000000" d="M129.8761,-199.8646C136.7174,-184.4775 144.3141,-167.3913 150.8033,-152.796"/>
<polygon fill="#000000" stroke="#000000" points="154.024,-154.167 154.8886,-143.6075 147.6277,-151.3231 154.024,-154.167"/>
<text text-anchor="middle" x="167.4472" y="-166.2802" font-family="Times,serif" font-size="14.00" fill="#000000">(c &lt;= 0)</text>
</g>
<!-- 3 -->
<g id="node3" class="node">
<title>3</title>
<ellipse fill="none" stroke="#000000" cx="109.4472" cy="-26.8701" rx="97.6615" ry="26.7407"/>
<text text-anchor="middle" x="109.4472" y="-30.6701" font-family="Times,serif" font-size="14.00" fill="#000000">#3</text>
<text text-anchor="middle" x="109.4472" y="-15.6701" font-family="Times,serif" font-size="14.00" fill="#000000"> total = c + φ(a2,a3）</text>
</g>
<!-- 2&#45;&gt;3 -->
<g id="edge1" class="edge">
<title>2&#45;&gt;3</title>
<path fill="none" stroke="#000000" d="M70.0609,-91.8504C75.6048,-82.704 81.9467,-72.241 87.898,-62.4223"/>
<polygon fill="#000000" stroke="#000000" points="91.0293,-64.0085 93.2197,-53.6426 85.0431,-60.3801 91.0293,-64.0085"/>
</g>
<!-- 4&#45;&gt;3 -->
<g id="edge3" class="edge">
<title>4&#45;&gt;3</title>
<path fill="none" stroke="#000000" d="M150.8717,-92.815C144.9571,-83.3993 138.1002,-72.4836 131.688,-62.2759"/>
<polygon fill="#000000" stroke="#000000" points="134.4855,-60.1493 126.2024,-53.5431 128.5579,-63.8728 134.4855,-60.1493"/>
</g>
</g>
</svg>
