<?xml version="1.0" encoding="utf-8"?>
<!-- Generator: Adobe Illustrator 26.1.0, SVG Export Plug-In . SVG Version: 6.00 Build 0)  -->
<svg version="1.1" id="Layer_1" xmlns="http://www.w3.org/2000/svg" xmlns:xlink="http://www.w3.org/1999/xlink" x="0px" y="0px"
	 viewBox="0 0 682.18 142.28" style="enable-background:new 0 0 682.18 142.28;" xml:space="preserve">
<style type="text/css">
	.st0{fill:none;stroke:#E6E6E6;stroke-width:2;stroke-miterlimit:10;}
	.st1{fill:#273742;}
	.st2{fill:#3E6B87;}
	.st3{fill:url(#SVGID_1_);}
	.st4{fill:url(#SVGID_00000124152473210342286260000016374918451727770805_);}
</style>
<line class="st0" x1="176.18" y1="0" x2="176.18" y2="142.28"/>
<path class="st1" d="M252.02,103.56c-7.16,0-14.02-0.89-20.56-2.65c-6.55-1.77-11.84-4.01-15.87-6.73l8.03-18.15
	c3.87,2.47,8.33,4.51,13.4,6.11s10.11,2.41,15.13,2.41c3.46,0,6.19-0.29,8.21-0.86c2.02-0.58,3.5-1.4,4.45-2.47
	c0.95-1.07,1.42-2.35,1.42-3.83c0-1.89-0.91-3.4-2.72-4.51c-1.81-1.11-4.18-2.06-7.1-2.84c-2.92-0.78-6.09-1.52-9.51-2.22
	c-3.42-0.7-6.9-1.62-10.43-2.78c-3.54-1.15-6.75-2.67-9.63-4.57c-2.88-1.89-5.21-4.36-6.98-7.41c-1.77-3.04-2.66-6.87-2.66-11.49
	c0-5.1,1.4-9.76,4.2-13.95c2.8-4.2,7.04-7.57,12.72-10.13c5.68-2.55,12.76-3.83,21.24-3.83c5.68,0,11.26,0.64,16.73,1.91
	c5.47,1.28,10.31,3.19,14.51,5.74l-7.41,18.03c-4.12-2.3-8.19-3.99-12.23-5.06c-4.04-1.07-7.95-1.61-11.73-1.61
	c-3.38,0-6.09,0.37-8.15,1.11c-2.06,0.74-3.54,1.69-4.45,2.84c-0.91,1.15-1.36,2.39-1.36,3.71c0,1.98,0.9,3.52,2.72,4.63
	c1.81,1.11,4.16,2.02,7.04,2.72c2.88,0.7,6.07,1.42,9.57,2.16c3.5,0.74,6.98,1.67,10.44,2.78c3.46,1.11,6.65,2.59,9.57,4.45
	c2.92,1.85,5.29,4.28,7.1,7.29c1.81,3.01,2.72,6.77,2.72,11.3c0,5.02-1.42,9.65-4.26,13.89c-2.84,4.24-7.1,7.64-12.78,10.19
	S260.58,103.56,252.02,103.56z"/>
<path class="st1" d="M334.64,102.95c-7.49,0-14.12-1.48-19.88-4.45c-5.76-2.96-10.29-7.06-13.58-12.29
	c-3.29-5.23-4.94-11.18-4.94-17.84c0-6.75,1.65-12.72,4.94-17.91c3.29-5.19,7.82-9.28,13.58-12.29c5.76-3,12.39-4.51,19.88-4.51
	c7.57,0,14.12,1.63,19.64,4.88c5.51,3.25,9.43,7.76,11.73,13.52l-18.15,9.39c-1.56-3.13-3.5-5.41-5.8-6.85
	c-2.31-1.44-4.82-2.16-7.53-2.16s-5.17,0.62-7.35,1.85c-2.18,1.24-3.93,3.01-5.25,5.31c-1.32,2.31-1.98,5.23-1.98,8.77
	c0,3.38,0.66,6.26,1.98,8.64c1.32,2.39,3.07,4.2,5.25,5.43c2.18,1.24,4.63,1.85,7.35,1.85s5.23-0.72,7.53-2.16
	c2.3-1.44,4.24-3.72,5.8-6.85L366,84.55c-2.31,5.76-6.22,10.27-11.73,13.52C348.75,101.32,342.21,102.95,334.64,102.95z"/>
<path class="st1" d="M396.01,102.95c-5.27,0-9.78-0.91-13.52-2.72c-3.75-1.81-6.59-4.28-8.52-7.41c-1.93-3.13-2.9-6.59-2.9-10.37
	c0-4.12,1.05-7.7,3.15-10.74c2.1-3.04,5.35-5.37,9.76-6.98c4.4-1.61,10.02-2.41,16.86-2.41h15.81v12.35h-12.6
	c-3.79,0-6.44,0.58-7.97,1.73c-1.52,1.15-2.28,2.8-2.28,4.94c0,1.98,0.78,3.6,2.35,4.88c1.56,1.28,3.71,1.91,6.42,1.91
	c2.63,0,5-0.64,7.1-1.91c2.1-1.28,3.6-3.23,4.51-5.87l3.21,8.64c-1.24,4.61-3.64,8.09-7.22,10.43S401.86,102.95,396.01,102.95z
	 M415.77,101.84V89.36l-1.61-3.09V63.31c0-3.71-1.13-6.56-3.4-8.58c-2.26-2.02-5.87-3.03-10.8-3.03c-3.21,0-6.48,0.54-9.82,1.61
	c-3.33,1.07-6.16,2.43-8.46,4.08l-7.78-15.81c3.79-2.47,8.34-4.4,13.65-5.8c5.31-1.4,10.6-2.1,15.87-2.1
	c10.87,0,19.28,2.51,25.25,7.53c5.97,5.02,8.95,12.84,8.95,23.46v37.17H415.77z"/>
<path class="st1" d="M492.36,128.15V34.78h22.48v11.78l-0.25,22.8l1.24,22.68v36.11H492.36z M534.47,102.95
	c-5.68,0-10.54-1.25-14.57-3.77c-4.04-2.51-7.1-6.32-9.2-11.42c-2.1-5.1-3.15-11.53-3.15-19.26c0-8.07,0.99-14.63,2.96-19.7
	c1.98-5.06,4.96-8.85,8.95-11.36c3.99-2.51,8.99-3.77,15-3.77c6.09,0,11.63,1.44,16.61,4.32c4.98,2.88,8.93,6.9,11.86,12.04
	c2.92,5.15,4.38,11.3,4.38,18.46c0,7-1.46,13.09-4.38,18.28c-2.92,5.19-6.88,9.18-11.86,11.98
	C546.1,101.55,540.57,102.95,534.47,102.95z M529.53,84.3c2.63,0,5-0.62,7.1-1.85c2.1-1.23,3.79-3.04,5.06-5.43
	c1.28-2.39,1.91-5.23,1.91-8.52c0-3.54-0.64-6.48-1.91-8.83c-1.28-2.35-2.96-4.14-5.06-5.37c-2.1-1.23-4.47-1.85-7.1-1.85
	c-2.64,0-5,0.62-7.1,1.85c-2.1,1.24-3.79,3.03-5.06,5.37c-1.28,2.35-1.91,5.29-1.91,8.83c0,3.29,0.64,6.13,1.91,8.52
	c1.28,2.39,2.96,4.2,5.06,5.43C524.53,83.68,526.9,84.3,529.53,84.3z"/>
<path class="st1" d="M613.39,102.95c-7.99,0-14.92-1.5-20.81-4.51c-5.89-3-10.46-7.12-13.71-12.35c-3.25-5.23-4.88-11.13-4.88-17.72
	c0-6.75,1.58-12.74,4.75-17.97c3.17-5.23,7.53-9.32,13.09-12.29c5.56-2.96,11.88-4.45,18.96-4.45c6.59,0,12.58,1.38,17.97,4.14
	c5.39,2.76,9.71,6.71,12.97,11.86c3.25,5.15,4.88,11.42,4.88,18.83c0,0.82-0.04,1.77-0.12,2.84c-0.08,1.07-0.17,2.06-0.25,2.96
	h-52.98V61.95h40.5l-8.89,3.46c0.08-2.96-0.47-5.58-1.67-7.84c-1.19-2.26-2.82-4.01-4.88-5.25c-2.06-1.24-4.49-1.85-7.29-1.85
	c-2.88,0-5.39,0.62-7.53,1.85c-2.14,1.23-3.77,2.99-4.88,5.25c-1.11,2.27-1.67,4.92-1.67,7.97v3.58c0,3.29,0.68,6.13,2.04,8.52
	c1.36,2.39,3.31,4.22,5.87,5.5c2.55,1.28,5.6,1.91,9.14,1.91c3.38,0,6.22-0.47,8.52-1.42c2.3-0.95,4.61-2.41,6.92-4.38l12.23,12.97
	c-3.13,3.46-7.04,6.11-11.73,7.97C625.24,102.02,619.72,102.95,613.39,102.95z"/>
<path class="st2" d="M451.96,101.9l-7.42,40.39l8.03-7.97l11.69-26.05c0,0-2.1-2.5-2.74-6.7c-0.65-4.2,1.85-10.97,1.85-10.97
	L451.96,101.9z"/>
<g>
	<path class="st1" d="M271.61,128.03c-0.69,0-1.35-0.11-1.98-0.34c-0.63-0.22-1.12-0.51-1.46-0.87l0.38-0.75
		c0.33,0.32,0.76,0.58,1.31,0.8c0.55,0.22,1.13,0.32,1.74,0.32c0.58,0,1.06-0.07,1.42-0.22c0.37-0.14,0.63-0.34,0.81-0.59
		c0.17-0.25,0.26-0.52,0.26-0.82c0-0.36-0.1-0.65-0.31-0.87c-0.21-0.22-0.48-0.39-0.81-0.52c-0.34-0.13-0.71-0.24-1.11-0.34
		c-0.41-0.1-0.81-0.2-1.22-0.31c-0.4-0.11-0.78-0.26-1.12-0.44c-0.34-0.18-0.61-0.43-0.82-0.73c-0.21-0.3-0.31-0.7-0.31-1.2
		c0-0.46,0.12-0.88,0.36-1.26c0.24-0.38,0.61-0.69,1.12-0.92c0.5-0.23,1.15-0.35,1.93-0.35c0.52,0,1.04,0.07,1.55,0.22
		c0.51,0.15,0.95,0.35,1.32,0.6l-0.33,0.78c-0.4-0.26-0.82-0.46-1.26-0.58c-0.45-0.12-0.88-0.19-1.29-0.19
		c-0.56,0-1.01,0.07-1.37,0.22c-0.36,0.15-0.63,0.35-0.8,0.6c-0.17,0.25-0.26,0.54-0.26,0.85c0,0.36,0.1,0.65,0.31,0.87
		c0.21,0.22,0.48,0.39,0.82,0.52s0.71,0.23,1.12,0.33c0.4,0.1,0.81,0.2,1.21,0.32c0.4,0.12,0.77,0.26,1.11,0.44
		c0.34,0.18,0.61,0.42,0.82,0.72s0.31,0.69,0.31,1.18c0,0.45-0.12,0.87-0.37,1.25c-0.25,0.38-0.62,0.69-1.13,0.92
		C273.05,127.91,272.4,128.03,271.61,128.03z"/>
	<path class="st1" d="M275.91,121.79v-0.78h4.3v0.78H275.91z M279.18,128.02c-0.65,0-1.15-0.18-1.51-0.53
		c-0.35-0.35-0.53-0.85-0.53-1.49v-6.52h0.94v6.46c0,0.41,0.1,0.72,0.31,0.94c0.21,0.22,0.51,0.33,0.89,0.33
		c0.41,0,0.76-0.12,1.03-0.36l0.33,0.67c-0.19,0.17-0.41,0.29-0.67,0.37C279.72,127.98,279.46,128.02,279.18,128.02z"/>
	<path class="st1" d="M284.31,128.02c-0.52,0-0.97-0.09-1.36-0.26c-0.38-0.17-0.68-0.41-0.88-0.71c-0.2-0.3-0.3-0.65-0.3-1.05
		c0-0.36,0.08-0.69,0.26-0.98c0.17-0.3,0.45-0.53,0.85-0.71c0.39-0.18,0.92-0.27,1.58-0.27h2.39v0.7h-2.37
		c-0.67,0-1.13,0.12-1.39,0.36c-0.26,0.24-0.39,0.53-0.39,0.89c0,0.4,0.15,0.71,0.46,0.95c0.31,0.24,0.74,0.36,1.3,0.36
		c0.53,0,0.98-0.12,1.37-0.36c0.38-0.24,0.66-0.59,0.84-1.05l0.21,0.65c-0.18,0.46-0.48,0.82-0.92,1.1
		C285.52,127.88,284.97,128.02,284.31,128.02z M286.71,127.95v-1.53l-0.04-0.25v-2.57c0-0.59-0.17-1.04-0.5-1.36
		c-0.33-0.32-0.82-0.48-1.47-0.48c-0.45,0-0.88,0.07-1.28,0.22c-0.4,0.15-0.75,0.35-1.03,0.6l-0.42-0.7
		c0.35-0.3,0.78-0.53,1.27-0.69c0.49-0.16,1.01-0.24,1.56-0.24c0.9,0,1.59,0.22,2.08,0.67c0.49,0.45,0.73,1.12,0.73,2.03v4.31
		H286.71z"/>
	<path class="st1" d="M289.07,121.79v-0.78h4.3v0.78H289.07z M292.35,128.02c-0.65,0-1.15-0.18-1.51-0.53
		c-0.35-0.35-0.53-0.85-0.53-1.49v-6.52h0.94v6.46c0,0.41,0.1,0.72,0.31,0.94c0.21,0.22,0.5,0.33,0.89,0.33
		c0.41,0,0.76-0.12,1.03-0.36l0.33,0.67c-0.19,0.17-0.41,0.29-0.67,0.37C292.89,127.98,292.62,128.02,292.35,128.02z"/>
	<path class="st1" d="M296,119.48c-0.19,0-0.36-0.07-0.49-0.2c-0.13-0.13-0.2-0.29-0.2-0.48c0-0.18,0.07-0.34,0.2-0.47
		c0.13-0.13,0.3-0.19,0.49-0.19c0.19,0,0.36,0.06,0.49,0.18c0.13,0.12,0.2,0.28,0.2,0.46c0,0.19-0.06,0.36-0.19,0.49
		C296.37,119.41,296.2,119.48,296,119.48z M295.52,127.95v-6.94h0.94v6.94H295.52z"/>
	<path class="st1" d="M301.96,128.02c-0.69,0-1.3-0.15-1.84-0.46c-0.54-0.3-0.97-0.72-1.28-1.26c-0.31-0.53-0.46-1.14-0.46-1.83
		c0-0.7,0.15-1.31,0.46-1.84c0.31-0.53,0.73-0.94,1.28-1.24c0.54-0.3,1.16-0.45,1.84-0.45c0.59,0,1.12,0.11,1.6,0.34
		c0.48,0.23,0.85,0.57,1.12,1.03l-0.7,0.48c-0.24-0.35-0.53-0.61-0.89-0.78c-0.35-0.17-0.74-0.25-1.15-0.25
		c-0.49,0-0.94,0.11-1.34,0.34c-0.4,0.22-0.71,0.54-0.94,0.95c-0.23,0.41-0.34,0.88-0.34,1.43c0,0.55,0.11,1.02,0.34,1.43
		c0.23,0.41,0.54,0.72,0.94,0.95c0.4,0.22,0.84,0.34,1.34,0.34c0.41,0,0.8-0.08,1.15-0.25c0.35-0.17,0.65-0.42,0.89-0.77l0.7,0.48
		c-0.27,0.45-0.65,0.79-1.12,1.02C303.08,127.9,302.55,128.02,301.96,128.02z"/>
	<path class="st1" d="M308.7,127.95l4.23-9.25h0.97l4.23,9.25h-1.03l-3.89-8.69h0.4l-3.89,8.69H308.7z M310.37,125.48l0.29-0.79
		h5.38l0.29,0.79H310.37z"/>
	<path class="st1" d="M323,120.94c0.56,0,1.06,0.11,1.49,0.32c0.43,0.22,0.76,0.54,1,0.98c0.24,0.44,0.36,1,0.36,1.67v4.03h-0.94
		v-3.94c0-0.73-0.18-1.28-0.55-1.66c-0.37-0.37-0.88-0.56-1.54-0.56c-0.49,0-0.92,0.1-1.29,0.3c-0.37,0.2-0.65,0.49-0.85,0.86
		s-0.3,0.83-0.3,1.35v3.65h-0.94v-6.94h0.9v1.9l-0.15-0.36c0.22-0.5,0.57-0.9,1.06-1.18C321.76,121.09,322.33,120.94,323,120.94z"/>
	<path class="st1" d="M330.35,128.02c-0.52,0-0.97-0.09-1.36-0.26s-0.68-0.41-0.88-0.71c-0.2-0.3-0.3-0.65-0.3-1.05
		c0-0.36,0.09-0.69,0.26-0.98c0.17-0.3,0.45-0.53,0.85-0.71c0.39-0.18,0.92-0.27,1.58-0.27h2.39v0.7h-2.37
		c-0.67,0-1.14,0.12-1.39,0.36c-0.26,0.24-0.39,0.53-0.39,0.89c0,0.4,0.15,0.71,0.46,0.95c0.31,0.24,0.74,0.36,1.3,0.36
		c0.53,0,0.98-0.12,1.37-0.36c0.38-0.24,0.66-0.59,0.84-1.05l0.21,0.65c-0.18,0.46-0.48,0.82-0.92,1.1
		C331.56,127.88,331.01,128.02,330.35,128.02z M332.75,127.95v-1.53l-0.04-0.25v-2.57c0-0.59-0.17-1.04-0.5-1.36
		c-0.33-0.32-0.82-0.48-1.47-0.48c-0.45,0-0.88,0.07-1.28,0.22c-0.4,0.15-0.75,0.35-1.03,0.6l-0.42-0.7
		c0.35-0.3,0.77-0.53,1.27-0.69c0.49-0.16,1.01-0.24,1.56-0.24c0.9,0,1.59,0.22,2.08,0.67c0.49,0.45,0.73,1.12,0.73,2.03v4.31
		H332.75z"/>
	<path class="st1" d="M336.2,127.95v-9.81h0.94v9.81H336.2z"/>
	<path class="st1" d="M339.81,130.58c-0.33,0-0.64-0.05-0.93-0.16c-0.3-0.11-0.55-0.26-0.76-0.48l0.44-0.7
		c0.18,0.17,0.37,0.3,0.58,0.39c0.21,0.09,0.44,0.14,0.69,0.14c0.31,0,0.58-0.09,0.8-0.26c0.22-0.17,0.44-0.47,0.64-0.91l0.45-1.02
		l0.11-0.15l2.86-6.44h0.92l-3.48,7.77c-0.19,0.45-0.41,0.81-0.64,1.07c-0.23,0.26-0.49,0.45-0.76,0.56
		C340.44,130.52,340.14,130.58,339.81,130.58z M341.65,128.15l-3.2-7.14h0.98l2.83,6.37L341.65,128.15z"/>
	<path class="st1" d="M348.7,128.02c-0.57,0-1.12-0.08-1.63-0.25c-0.51-0.16-0.91-0.37-1.2-0.61l0.42-0.74
		c0.28,0.21,0.64,0.39,1.08,0.55c0.44,0.15,0.9,0.23,1.39,0.23c0.66,0,1.14-0.1,1.43-0.31c0.29-0.21,0.44-0.48,0.44-0.83
		c0-0.26-0.08-0.46-0.24-0.6c-0.16-0.15-0.38-0.26-0.64-0.33c-0.26-0.07-0.56-0.14-0.89-0.19c-0.33-0.05-0.65-0.11-0.97-0.18
		c-0.32-0.07-0.61-0.17-0.88-0.31c-0.26-0.14-0.48-0.32-0.64-0.56c-0.16-0.24-0.25-0.56-0.25-0.95c0-0.38,0.11-0.72,0.32-1.02
		c0.21-0.3,0.52-0.53,0.93-0.71c0.41-0.17,0.91-0.26,1.5-0.26c0.45,0,0.9,0.06,1.35,0.18c0.45,0.12,0.82,0.28,1.11,0.47l-0.41,0.75
		c-0.31-0.21-0.64-0.36-0.99-0.46c-0.35-0.09-0.71-0.14-1.06-0.14c-0.63,0-1.09,0.11-1.38,0.32c-0.3,0.22-0.44,0.49-0.44,0.83
		c0,0.26,0.08,0.47,0.24,0.62c0.16,0.15,0.38,0.27,0.65,0.35c0.27,0.08,0.56,0.15,0.89,0.21c0.32,0.05,0.64,0.12,0.96,0.19
		c0.32,0.08,0.62,0.18,0.89,0.3c0.27,0.13,0.48,0.31,0.65,0.54c0.16,0.23,0.24,0.54,0.24,0.92c0,0.41-0.11,0.76-0.34,1.05
		s-0.55,0.52-0.98,0.69C349.83,127.93,349.31,128.02,348.7,128.02z"/>
	<path class="st1" d="M353.76,119.48c-0.19,0-0.36-0.07-0.49-0.2c-0.13-0.13-0.2-0.29-0.2-0.48c0-0.18,0.07-0.34,0.2-0.47
		c0.13-0.13,0.3-0.19,0.49-0.19s0.36,0.06,0.49,0.18c0.13,0.12,0.2,0.28,0.2,0.46c0,0.19-0.06,0.36-0.19,0.49
		C354.13,119.41,353.97,119.48,353.76,119.48z M353.29,127.95v-6.94h0.94v6.94H353.29z"/>
	<path class="st1" d="M358.71,128.02c-0.57,0-1.12-0.08-1.63-0.25c-0.51-0.16-0.91-0.37-1.2-0.61l0.42-0.74
		c0.28,0.21,0.64,0.39,1.08,0.55c0.44,0.15,0.9,0.23,1.39,0.23c0.66,0,1.14-0.1,1.43-0.31c0.29-0.21,0.44-0.48,0.44-0.83
		c0-0.26-0.08-0.46-0.24-0.6c-0.16-0.15-0.38-0.26-0.64-0.33c-0.26-0.07-0.56-0.14-0.89-0.19c-0.33-0.05-0.65-0.11-0.97-0.18
		c-0.32-0.07-0.61-0.17-0.88-0.31c-0.26-0.14-0.48-0.32-0.64-0.56c-0.16-0.24-0.25-0.56-0.25-0.95c0-0.38,0.11-0.72,0.32-1.02
		c0.21-0.3,0.52-0.53,0.93-0.71c0.41-0.17,0.91-0.26,1.5-0.26c0.45,0,0.9,0.06,1.35,0.18c0.45,0.12,0.82,0.28,1.11,0.47l-0.41,0.75
		c-0.31-0.21-0.64-0.36-0.99-0.46c-0.35-0.09-0.71-0.14-1.06-0.14c-0.63,0-1.09,0.11-1.38,0.32c-0.3,0.22-0.44,0.49-0.44,0.83
		c0,0.26,0.08,0.47,0.24,0.62c0.16,0.15,0.38,0.27,0.65,0.35c0.27,0.08,0.56,0.15,0.89,0.21c0.32,0.05,0.64,0.12,0.96,0.19
		c0.32,0.08,0.62,0.18,0.89,0.3c0.27,0.13,0.48,0.31,0.65,0.54c0.16,0.23,0.24,0.54,0.24,0.92c0,0.41-0.11,0.76-0.34,1.05
		c-0.22,0.3-0.55,0.52-0.98,0.69C359.83,127.93,359.32,128.02,358.71,128.02z"/>
	<path class="st1" d="M365.67,121.79v-0.78h4.3v0.78H365.67z M366.92,127.95v-7.81c0-0.62,0.18-1.11,0.54-1.49
		c0.36-0.38,0.88-0.57,1.56-0.57c0.26,0,0.52,0.04,0.77,0.11c0.25,0.07,0.45,0.18,0.62,0.33l-0.32,0.7
		c-0.13-0.11-0.29-0.2-0.46-0.26c-0.18-0.06-0.37-0.09-0.57-0.09c-0.4,0-0.7,0.11-0.91,0.33c-0.21,0.22-0.32,0.55-0.32,0.98v1.06
		l0.03,0.44v6.28H366.92z"/>
	<path class="st1" d="M373.95,128.02c-0.68,0-1.28-0.15-1.81-0.46c-0.53-0.3-0.95-0.72-1.26-1.26c-0.31-0.54-0.46-1.15-0.46-1.82
		c0-0.7,0.15-1.31,0.46-1.84c0.31-0.53,0.73-0.94,1.26-1.24c0.53-0.3,1.13-0.45,1.81-0.45c0.69,0,1.3,0.15,1.83,0.46
		c0.53,0.3,0.95,0.72,1.26,1.24c0.3,0.52,0.46,1.14,0.46,1.83c0,0.69-0.15,1.3-0.46,1.83c-0.3,0.53-0.72,0.95-1.26,1.26
		C375.24,127.86,374.63,128.02,373.95,128.02z M373.95,127.18c0.5,0,0.95-0.11,1.34-0.34c0.39-0.22,0.69-0.54,0.92-0.95
		c0.22-0.41,0.34-0.88,0.34-1.42c0-0.55-0.11-1.02-0.34-1.43c-0.23-0.4-0.53-0.72-0.92-0.95c-0.39-0.22-0.83-0.34-1.32-0.34
		c-0.49,0-0.93,0.11-1.32,0.34c-0.39,0.22-0.7,0.54-0.93,0.95c-0.23,0.41-0.34,0.88-0.34,1.43c0,0.54,0.11,1.01,0.34,1.42
		c0.23,0.41,0.54,0.73,0.92,0.95C373.02,127.07,373.46,127.18,373.95,127.18z"/>
	<path class="st1" d="M379.41,127.95v-6.94h0.9v1.89l-0.09-0.33c0.19-0.53,0.52-0.93,0.98-1.21c0.46-0.28,1.03-0.42,1.7-0.42v0.91
		c-0.04,0-0.07,0-0.11-0.01s-0.07-0.01-0.11-0.01c-0.73,0-1.3,0.22-1.72,0.67c-0.41,0.44-0.62,1.08-0.62,1.9v3.54H379.41z"/>
	<path class="st1" d="M388.37,127.95v-9.25h3.46c0.78,0,1.46,0.13,2.02,0.38c0.56,0.25,1,0.61,1.3,1.08
		c0.3,0.47,0.46,1.04,0.46,1.71c0,0.65-0.15,1.21-0.46,1.69c-0.3,0.47-0.74,0.84-1.3,1.09c-0.56,0.26-1.24,0.38-2.02,0.38h-2.92
		l0.44-0.46v3.38H388.37z M389.35,124.64l-0.44-0.48h2.89c0.93,0,1.63-0.2,2.11-0.6c0.48-0.4,0.72-0.97,0.72-1.7
		c0-0.74-0.24-1.31-0.72-1.72c-0.48-0.41-1.18-0.61-2.11-0.61h-2.89l0.44-0.46V124.64z"/>
	<path class="st1" d="M397.61,130.58c-0.33,0-0.64-0.05-0.93-0.16c-0.3-0.11-0.55-0.26-0.76-0.48l0.44-0.7
		c0.18,0.17,0.37,0.3,0.58,0.39c0.21,0.09,0.44,0.14,0.69,0.14c0.31,0,0.58-0.09,0.8-0.26c0.23-0.17,0.44-0.47,0.64-0.91l0.45-1.02
		l0.11-0.15l2.86-6.44h0.93l-3.48,7.77c-0.19,0.45-0.41,0.81-0.64,1.07c-0.23,0.26-0.49,0.45-0.76,0.56
		C398.25,130.52,397.95,130.58,397.61,130.58z M399.46,128.15l-3.2-7.14h0.98l2.83,6.37L399.46,128.15z"/>
	<path class="st1" d="M403.84,121.79v-0.78h4.3v0.78H403.84z M407.12,128.02c-0.65,0-1.15-0.18-1.51-0.53
		c-0.35-0.35-0.53-0.85-0.53-1.49v-6.52h0.94v6.46c0,0.41,0.1,0.72,0.31,0.94c0.21,0.22,0.51,0.33,0.89,0.33
		c0.41,0,0.76-0.12,1.03-0.36l0.33,0.67c-0.19,0.17-0.41,0.29-0.67,0.37C407.65,127.98,407.39,128.02,407.12,128.02z"/>
	<path class="st1" d="M413.83,120.94c0.56,0,1.06,0.11,1.49,0.32c0.43,0.22,0.76,0.54,1,0.98c0.24,0.44,0.36,1,0.36,1.67v4.03h-0.94
		v-3.94c0-0.73-0.18-1.28-0.55-1.66s-0.88-0.56-1.54-0.56c-0.49,0-0.92,0.1-1.29,0.3c-0.37,0.2-0.65,0.49-0.85,0.86
		c-0.2,0.37-0.3,0.83-0.3,1.35v3.65h-0.94v-9.81h0.94v4.77l-0.18-0.36c0.22-0.5,0.57-0.9,1.06-1.18S413.16,120.94,413.83,120.94z"/>
	<path class="st1" d="M422.05,128.02c-0.68,0-1.28-0.15-1.81-0.46c-0.53-0.3-0.95-0.72-1.26-1.26c-0.31-0.54-0.46-1.15-0.46-1.82
		c0-0.7,0.15-1.31,0.46-1.84c0.31-0.53,0.73-0.94,1.26-1.24c0.53-0.3,1.13-0.45,1.81-0.45c0.69,0,1.3,0.15,1.83,0.46
		c0.53,0.3,0.95,0.72,1.26,1.24c0.3,0.52,0.46,1.14,0.46,1.83c0,0.69-0.15,1.3-0.46,1.83c-0.3,0.53-0.72,0.95-1.26,1.26
		C423.34,127.86,422.73,128.02,422.05,128.02z M422.05,127.18c0.5,0,0.95-0.11,1.34-0.34c0.39-0.22,0.69-0.54,0.92-0.95
		c0.22-0.41,0.34-0.88,0.34-1.42c0-0.55-0.11-1.02-0.34-1.43c-0.22-0.4-0.53-0.72-0.92-0.95c-0.39-0.22-0.83-0.34-1.32-0.34
		c-0.49,0-0.93,0.11-1.32,0.34c-0.39,0.22-0.7,0.54-0.93,0.95c-0.23,0.41-0.34,0.88-0.34,1.43c0,0.54,0.11,1.01,0.34,1.42
		c0.23,0.41,0.54,0.73,0.92,0.95C421.12,127.07,421.56,127.18,422.05,127.18z"/>
	<path class="st1" d="M431.05,120.94c0.56,0,1.06,0.11,1.49,0.32c0.43,0.22,0.76,0.54,1.01,0.98c0.24,0.44,0.36,1,0.36,1.67v4.03
		h-0.94v-3.94c0-0.73-0.18-1.28-0.55-1.66c-0.37-0.37-0.88-0.56-1.54-0.56c-0.49,0-0.92,0.1-1.29,0.3c-0.37,0.2-0.65,0.49-0.85,0.86
		s-0.3,0.83-0.3,1.35v3.65h-0.94v-6.94h0.9v1.9l-0.14-0.36c0.22-0.5,0.57-0.9,1.06-1.18S430.38,120.94,431.05,120.94z"/>
</g>
<path class="st1" d="M462.63,9.06l-10.67,92.83l16.06-11.16l17.46-79.33c0,0,1.37-9.63-9.91-11.25
	C464.29-1.45,462.63,9.06,462.63,9.06z"/>
<path class="st1" d="M658.72,101.84V10.2h23.46v91.63H658.72z"/>
<linearGradient id="SVGID_1_" gradientUnits="userSpaceOnUse" x1="-77.6669" y1="830.8513" x2="-6.677" y2="769.7737" gradientTransform="matrix(1.0937 0 0 -1.1042 81.4882 921.4859)">
	<stop  offset="0" style="stop-color:#5A9FD4"/>
	<stop  offset="1" style="stop-color:#306998"/>
</linearGradient>
<path class="st3" d="M69.53,0c-5.8,0.03-11.34,0.52-16.22,1.39C38.94,3.92,36.33,9.24,36.33,19.03v12.94h33.95v4.31H23.6
	c-9.87,0-18.5,5.93-21.21,17.21c-3.12,12.93-3.25,21,0,34.5c2.41,10.05,8.17,17.21,18.04,17.21H32.1V89.69
	c0-11.2,9.69-21.09,21.21-21.09h33.9c9.44,0,16.97-7.77,16.97-17.25V19.03c0-9.2-7.76-16.11-16.97-17.65
	C81.38,0.42,75.33-0.03,69.53,0z M51.17,10.41c3.51,0,6.37,2.91,6.37,6.49c0,3.57-2.86,6.45-6.37,6.45c-3.52,0-6.37-2.88-6.37-6.45
	C44.8,13.32,47.65,10.41,51.17,10.41z"/>
<linearGradient id="SVGID_00000116930721364824898220000003810078190936216979_" gradientUnits="userSpaceOnUse" x1="20.7685" y1="732.8071" x2="-4.5823" y2="768.674" gradientTransform="matrix(1.0937 0 0 -1.1042 81.4882 921.4859)">
	<stop  offset="0" style="stop-color:#FFD43B"/>
	<stop  offset="1" style="stop-color:#FFE873"/>
</linearGradient>
<path style="fill:url(#SVGID_00000116930721364824898220000003810078190936216979_);" d="M108.42,36.28v15.07
	c0,11.69-9.91,21.52-21.21,21.52h-33.9c-9.29,0-16.97,7.95-16.97,17.25v32.32c0,9.2,8,14.61,16.97,17.25
	c10.74,3.16,21.05,3.73,33.9,0c8.55-2.48,16.97-7.45,16.97-17.25v-12.94h-33.9v-4.31h50.88c9.87,0,13.54-6.88,16.97-17.21
	c3.54-10.63,3.39-20.86,0-34.5c-2.44-9.82-7.09-17.21-16.97-17.21H108.42z M89.35,118.13c3.52,0,6.37,2.88,6.37,6.45
	c0,3.58-2.85,6.49-6.37,6.49c-3.51,0-6.37-2.91-6.37-6.49C82.98,121.02,85.84,118.13,89.35,118.13z"/>
</svg>
